<svg xmlns="http://www.w3.org/2000/svg" viewBox="0 0 680 680" role="img" aria-label="Cursor Voice">
  <title>Cursor Voice</title>
  <defs>
    <clipPath id="roundedClip">
      <rect x="140" y="140" width="400" height="400" rx="72"/>
    </clipPath>
  </defs>

  <rect x="140" y="140" width="400" height="400" rx="72" fill="#1a1a2e"/>
  <rect x="140" y="420" width="400" height="120" clip-path="url(#roundedClip)" fill="#7c3aed"/>
  <rect x="140" y="140" width="400" height="400" rx="72" fill="none" stroke="#7c3aed" stroke-width="2" opacity="0.4"/>

  <g clip-path="url(#roundedClip)">
    <path d="M230 210 L230 400 L280 355 L315 430 L340 418 L305 343 L370 343 Z" transform="translate(4,5)" fill="rgba(0,0,0,0.25)"/>
    <path d="M230 210 L230 400 L280 355 L315 430 L340 418 L305 343 L370 343 Z" fill="#ffffff"/>
    <path d="M230 210 L230 400 L280 355 L315 430 L340 418 L305 343 L370 343 Z" fill="none" stroke="#7c3aed" stroke-width="3" stroke-linejoin="round"/>
  </g>

  <path d="M390 295 Q400 285 400 270 Q400 255 390 245" fill="none" stroke="#ffffff" stroke-width="5" stroke-linecap="round" opacity="0.9"/>
  <path d="M405 310 Q422 292 422 270 Q422 248 405 230" fill="none" stroke="#a78bfa" stroke-width="5" stroke-linecap="round" opacity="0.75"/>
  <path d="M420 325 Q444 299 444 270 Q444 241 420 215" fill="none" stroke="#a78bfa" stroke-width="4" stroke-linecap="round" opacity="0.45"/>
</svg>
